<?xml version="1.0" encoding="UTF-8" standalone="no"?>
<!-- Created with Inkscape (http://www.inkscape.org/) -->

<svg
   xmlns:dc="http://purl.org/dc/elements/1.1/"
   xmlns:cc="http://creativecommons.org/ns#"
   xmlns:rdf="http://www.w3.org/1999/02/22-rdf-syntax-ns#"
   xmlns:svg="http://www.w3.org/2000/svg"
   xmlns="http://www.w3.org/2000/svg"
   xmlns:xlink="http://www.w3.org/1999/xlink"
   xmlns:sodipodi="http://sodipodi.sourceforge.net/DTD/sodipodi-0.dtd"
   xmlns:inkscape="http://www.inkscape.org/namespaces/inkscape"
   width="160"
   height="195.99994"
   id="svg3175"
   version="1.1"
   inkscape:version="0.48.4 r9939"
   sodipodi:docname="Nieuw document 2">
  <defs
     id="defs3177">
    <linearGradient
       inkscape:collect="always"
       xlink:href="#linearGradient3759"
       id="linearGradient3073"
       gradientUnits="userSpaceOnUse"
       gradientTransform="matrix(1.1848538,0,0,1.1874076,-9.157312,-189.11588)"
       x1="117.58683"
       y1="967.15582"
       x2="151.68367"
       y2="967.15582" />
    <linearGradient
       id="linearGradient3759">
      <stop
         style="stop-color:#ff9200;stop-opacity:1;"
         offset="0"
         id="stop3761" />
      <stop
         style="stop-color:#c97301;stop-opacity:1;"
         offset="1"
         id="stop3763" />
    </linearGradient>
    <linearGradient
       inkscape:collect="always"
       xlink:href="#linearGradient3759"
       id="linearGradient3075"
       gradientUnits="userSpaceOnUse"
       gradientTransform="matrix(1.1848538,0,0,1.1874076,-9.157312,-189.11588)"
       x1="117.58683"
       y1="967.15582"
       x2="151.68367"
       y2="967.15582" />
    <linearGradient
       id="linearGradient3117">
      <stop
         style="stop-color:#ff9200;stop-opacity:1;"
         offset="0"
         id="stop3119" />
      <stop
         style="stop-color:#c97301;stop-opacity:1;"
         offset="1"
         id="stop3121" />
    </linearGradient>
    <linearGradient
       inkscape:collect="always"
       xlink:href="#linearGradient3759"
       id="linearGradient3077"
       gradientUnits="userSpaceOnUse"
       gradientTransform="matrix(1.1848538,0,0,1.1874076,-9.157312,-189.11588)"
       x1="117.58683"
       y1="967.15582"
       x2="151.68367"
       y2="967.15582" />
    <linearGradient
       id="linearGradient3124">
      <stop
         style="stop-color:#ff9200;stop-opacity:1;"
         offset="0"
         id="stop3126" />
      <stop
         style="stop-color:#c97301;stop-opacity:1;"
         offset="1"
         id="stop3128" />
    </linearGradient>
    <linearGradient
       inkscape:collect="always"
       xlink:href="#linearGradient3759"
       id="linearGradient3079"
       gradientUnits="userSpaceOnUse"
       gradientTransform="matrix(1.1848538,0,0,1.1874076,-9.157312,-189.11588)"
       x1="117.58683"
       y1="967.15582"
       x2="151.68367"
       y2="967.15582" />
    <linearGradient
       id="linearGradient3131">
      <stop
         style="stop-color:#ff9200;stop-opacity:1;"
         offset="0"
         id="stop3133" />
      <stop
         style="stop-color:#c97301;stop-opacity:1;"
         offset="1"
         id="stop3135" />
    </linearGradient>
    <linearGradient
       inkscape:collect="always"
       xlink:href="#linearGradient3759"
       id="linearGradient3081"
       gradientUnits="userSpaceOnUse"
       gradientTransform="matrix(1.1848538,0,0,1.1874076,-9.157312,-189.11588)"
       x1="117.58683"
       y1="967.15582"
       x2="151.68367"
       y2="967.15582" />
    <linearGradient
       id="linearGradient3138">
      <stop
         style="stop-color:#ff9200;stop-opacity:1;"
         offset="0"
         id="stop3140" />
      <stop
         style="stop-color:#c97301;stop-opacity:1;"
         offset="1"
         id="stop3142" />
    </linearGradient>
    <linearGradient
       inkscape:collect="always"
       xlink:href="#linearGradient4061"
       id="linearGradient3083"
       gradientUnits="userSpaceOnUse"
       gradientTransform="matrix(0.8,0,0,0.8,138.98436,170.75056)"
       x1="702.09381"
       y1="853.85931"
       x2="739.16284"
       y2="856.88184" />
    <linearGradient
       id="linearGradient4061">
      <stop
         style="stop-color:#e8dc00;stop-opacity:1;"
         offset="0"
         id="stop4063" />
      <stop
         style="stop-color:#ffda10;stop-opacity:1;"
         offset="1"
         id="stop4065" />
    </linearGradient>
  </defs>
  <sodipodi:namedview
     id="base"
     pagecolor="#ffffff"
     bordercolor="#666666"
     borderopacity="1.0"
     inkscape:pageopacity="0.0"
     inkscape:pageshadow="2"
     inkscape:zoom="0.7"
     inkscape:cx="-656.75893"
     inkscape:cy="307.5876"
     inkscape:document-units="px"
     inkscape:current-layer="layer1"
     showgrid="false"
     fit-margin-top="0"
     fit-margin-left="0"
     fit-margin-right="0"
     fit-margin-bottom="0"
     inkscape:window-width="1920"
     inkscape:window-height="1056"
     inkscape:window-x="0"
     inkscape:window-y="24"
     inkscape:window-maximized="1" />
  <metadata
     id="metadata3180">
    <rdf:RDF>
      <cc:Work
         rdf:about="">
        <dc:format>image/svg+xml</dc:format>
        <dc:type
           rdf:resource="http://purl.org/dc/dcmitype/StillImage" />
        <cc:license
           rdf:resource="" />
        <dc:title></dc:title>
      </cc:Work>
    </rdf:RDF>
  </metadata>
  <g
     inkscape:label="Laag 1"
     inkscape:groupmode="layer"
     id="layer1"
     transform="translate(-295.00003,-434.36223)">
    <g
       transform="matrix(3.7389171,0,0,3.9694759,-2303.2549,-2856.589)"
       id="g3045">
      <g
         transform="matrix(0.21372145,0,0,0.20159082,683.44512,672.05969)"
         id="g4052">
        <g
           transform="matrix(-0.5,-0.8660254,-0.8660254,0.5,1017.9754,610.23733)"
           id="g4028">
          <rect
             style="fill:url(#linearGradient3073);fill-opacity:1"
             id="rect4030"
             width="40.399769"
             height="127.80186"
             x="130.16589"
             y="895.3913"
             ry="20.243422" />
          <path
             sodipodi:type="arc"
             style="fill:#ffffff;fill-opacity:0.19607843"
             id="path4032"
             sodipodi:cx="131.75"
             sodipodi:cy="196.75"
             sodipodi:rx="10.25"
             sodipodi:ry="9.25"
             d="m 142,196.75 c 0,5.10863 -4.58908,9.25 -10.25,9.25 -5.66092,0 -10.25,-4.14137 -10.25,-9.25 0,-5.10863 4.58908,-9.25 10.25,-9.25 5.66092,0 10.25,4.14137 10.25,9.25 z"
             transform="matrix(1.8956466,0,0,1.9745978,-99.22637,616.60451)" />
        </g>
        <g
           id="g4034"
           transform="matrix(-0.8660254,-0.5,-0.5,0.8660254,742.23061,205.16906)">
          <rect
             ry="20.243422"
             y="895.3913"
             x="130.16589"
             height="127.80186"
             width="40.399769"
             id="rect4036"
             style="fill:url(#linearGradient3075);fill-opacity:1" />
          <path
             transform="matrix(1.8956466,0,0,1.9745978,-99.22637,616.60451)"
             d="m 142,196.75 c 0,5.10863 -4.58908,9.25 -10.25,9.25 -5.66092,0 -10.25,-4.14137 -10.25,-9.25 0,-5.10863 4.58908,-9.25 10.25,-9.25 5.66092,0 10.25,4.14137 10.25,9.25 z"
             sodipodi:ry="9.25"
             sodipodi:rx="10.25"
             sodipodi:cy="196.75"
             sodipodi:cx="131.75"
             id="path4038"
             style="fill:#ffffff;fill-opacity:0.19607843"
             sodipodi:type="arc" />
        </g>
        <g
           id="g3976"
           transform="matrix(0.5,-0.8660254,0.8660254,0.5,-710.34854,610.21956)">
          <rect
             ry="20.243422"
             y="895.3913"
             x="130.16589"
             height="127.80186"
             width="40.399769"
             id="rect3978"
             style="fill:url(#linearGradient3077);fill-opacity:1" />
          <path
             transform="matrix(1.8956466,0,0,1.9745978,-99.22637,616.60451)"
             d="m 142,196.75 c 0,5.10863 -4.58908,9.25 -10.25,9.25 -5.66092,0 -10.25,-4.14137 -10.25,-9.25 0,-5.10863 4.58908,-9.25 10.25,-9.25 5.66092,0 10.25,4.14137 10.25,9.25 z"
             sodipodi:ry="9.25"
             sodipodi:rx="10.25"
             sodipodi:cy="196.75"
             sodipodi:cx="131.75"
             id="path3980"
             style="fill:#ffffff;fill-opacity:0.19607843"
             sodipodi:type="arc" />
        </g>
        <g
           transform="matrix(0.8660254,-0.5,0.5,0.8660254,-434.60378,205.15129)"
           id="g3964">
          <rect
             style="fill:url(#linearGradient3079);fill-opacity:1"
             id="rect3966"
             width="40.399769"
             height="127.80186"
             x="130.16589"
             y="895.3913"
             ry="20.243422" />
          <path
             sodipodi:type="arc"
             style="fill:#ffffff;fill-opacity:0.19607843"
             id="path3968"
             sodipodi:cx="131.75"
             sodipodi:cy="196.75"
             sodipodi:rx="10.25"
             sodipodi:ry="9.25"
             d="m 142,196.75 c 0,5.10863 -4.58908,9.25 -10.25,9.25 -5.66092,0 -10.25,-4.14137 -10.25,-9.25 0,-5.10863 4.58908,-9.25 10.25,-9.25 5.66092,0 10.25,4.14137 10.25,9.25 z"
             transform="matrix(1.8956466,0,0,1.9745978,-99.22637,616.60451)" />
        </g>
        <g
           transform="matrix(-1,0,0,1,304.25183,0.392767)"
           id="g4040">
          <rect
             style="fill:url(#linearGradient3081);fill-opacity:1"
             id="rect4042"
             width="40.399769"
             height="127.80186"
             x="130.16589"
             y="895.3913"
             ry="20.243422" />
          <path
             sodipodi:type="arc"
             style="fill:#ffffff;fill-opacity:0.19607843"
             id="path4044"
             sodipodi:cx="131.75"
             sodipodi:cy="196.75"
             sodipodi:rx="10.25"
             sodipodi:ry="9.25"
             d="m 142,196.75 c 0,5.10863 -4.58908,9.25 -10.25,9.25 -5.66092,0 -10.25,-4.14137 -10.25,-9.25 0,-5.10863 4.58908,-9.25 10.25,-9.25 5.66092,0 10.25,4.14137 10.25,9.25 z"
             transform="matrix(1.8956466,0,0,1.9745978,-99.22637,616.60451)" />
        </g>
      </g>
      <path
         inkscape:connector-curvature="0"
         style="fill:#ff6600"
         sodipodi:nodetypes="cscscccsczcc"
         d="m 731.74436,865.85456 c 0,0 4.21432,-5.5 2.28568,-11.5712 -1.92856,-6.07144 -10.26669,-18.21942 -10.26669,-18.21942 -0.0791,-0.1999 -0.0113,-0.17403 -0.17928,-0.11271 -0.74221,0.2709 -2.03138,3.15076 -3.1051,2.32787 -2.07401,-3.60729 -2.27212,-7.43165 -4.64644,-9.21468 -3.99954,10.8555 -6.13037,17.17034 -7.94689,6.57533 0,0 -7.35044,12.57257 -9.279,18.64361 -1.92856,6.07144 2.28568,11.5712 2.28568,11.5712 0,0 5.44976,2.94168 15.4256,2.84072 9.976,-0.10101 15.4256,-2.84072 15.4256,-2.84072 z"
         id="path3971-8" />
      <path
         id="path4051"
         d="m 730.25773,866.46301 c 0,0 3.74046,-4.02148 2.04201,-8.57404 -1.69837,-4.55274 -9.0413,-13.66205 -9.0413,-13.66205 -0.0697,-0.1499 -0.01,-0.1305 -0.15788,-0.0845 -0.65362,0.20314 -1.78892,2.36264 -2.73448,1.74559 -1.82648,-2.70498 -2.00093,-5.57271 -4.09187,-6.90975 -3.52217,8.14013 -5.39867,12.8754 -6.99837,4.9306 0,0 -6.49688,9.46509 -8.19525,14.01753 -1.69837,4.55275 1.92245,8.80503 1.92245,8.80503 0,0 4.88972,2.07762 13.67489,2.00192 8.78531,-0.0758 13.57989,-2.27031 13.57989,-2.27031 z"
         sodipodi:nodetypes="cscscccsczcc"
         style="fill:url(#linearGradient3083);fill-opacity:1"
         inkscape:connector-curvature="0" />
      <g
         id="g4023"
         transform="matrix(1.04,0,0,1.04,-32.855612,-23.749327)">
        <path
           transform="matrix(0.31653583,0,0,0.29921307,680.47967,821.4499)"
           d="m 110.10663,81.051987 c 0,4.044716 -3.16583,7.323606 -7.07107,7.323606 -3.905242,0 -7.071067,-3.27889 -7.071067,-7.323606 0,-4.044716 3.165825,-7.323606 7.071067,-7.323606 3.90524,0 7.07107,3.27889 7.07107,7.323606 z"
           sodipodi:ry="7.323606"
           sodipodi:rx="7.0710678"
           sodipodi:cy="81.051987"
           sodipodi:cx="103.03556"
           id="path3232"
           style="fill:#000000;fill-opacity:1;fill-rule:evenodd;stroke:none"
           sodipodi:type="arc" />
        <path
           sodipodi:type="arc"
           style="fill:#ffffff;fill-opacity:1;fill-rule:evenodd;stroke:none"
           id="path4021"
           sodipodi:cx="103.03556"
           sodipodi:cy="81.051987"
           sodipodi:rx="7.0710678"
           sodipodi:ry="7.323606"
           d="m 110.10663,81.051987 c 0,4.044716 -3.16583,7.323606 -7.07107,7.323606 -3.905242,0 -7.071067,-3.27889 -7.071067,-7.323606 0,-4.044716 3.165825,-7.323606 7.071067,-7.323606 3.90524,0 7.07107,3.27889 7.07107,7.323606 z"
           transform="matrix(0.1036278,0,0,0.09285924,703.12288,837.41966)" />
      </g>
      <g
         id="g4027"
         transform="matrix(1.04,0,0,1.04,-17.743452,-23.749295)">
        <path
           sodipodi:type="arc"
           style="fill:#000000;fill-opacity:1;fill-rule:evenodd;stroke:none"
           id="path4029"
           sodipodi:cx="103.03556"
           sodipodi:cy="81.051987"
           sodipodi:rx="7.0710678"
           sodipodi:ry="7.323606"
           d="m 110.10663,81.051987 c 0,4.044716 -3.16583,7.323606 -7.07107,7.323606 -3.905242,0 -7.071067,-3.27889 -7.071067,-7.323606 0,-4.044716 3.165825,-7.323606 7.071067,-7.323606 3.90524,0 7.07107,3.27889 7.07107,7.323606 z"
           transform="matrix(0.31653583,0,0,0.29921307,680.47967,821.4499)" />
        <path
           transform="matrix(0.1036278,0,0,0.09285924,703.12288,837.41966)"
           d="m 110.10663,81.051987 c 0,4.044716 -3.16583,7.323606 -7.07107,7.323606 -3.905242,0 -7.071067,-3.27889 -7.071067,-7.323606 0,-4.044716 3.165825,-7.323606 7.071067,-7.323606 3.90524,0 7.07107,3.27889 7.07107,7.323606 z"
           sodipodi:ry="7.323606"
           sodipodi:rx="7.0710678"
           sodipodi:cy="81.051987"
           sodipodi:cx="103.03556"
           id="path4031"
           style="fill:#ffffff;fill-opacity:1;fill-rule:evenodd;stroke:none"
           sodipodi:type="arc" />
      </g>
      <path
         style="fill:#d51021;fill-opacity:1;stroke:none"
         d="m 711.11812,859.68824 10.40046,0 c 0.0501,0 0.0904,0.0403 0.0904,0.0904 -0.13647,6.24352 -10.28009,6.19706 -10.58134,0 0,-0.0501 0.0403,-0.0904 0.0904,-0.0904 z"
         id="rect4040"
         inkscape:connector-curvature="0"
         sodipodi:nodetypes="ssccs" />
      <path
         inkscape:connector-curvature="0"
         id="path3851"
         d="m 716.21683,862.02531 c -1.40167,0 -2.53794,0.71076 -2.53794,1.58753 0,0.0791 0.0155,0.1571 0.0334,0.23308 1.51487,0.73581 3.40296,0.79491 4.95567,0.1701 0.0539,-0.1288 0.0868,-0.26382 0.0868,-0.40318 0,-0.87677 -1.13627,-1.58753 -2.53794,-1.58753 z"
         style="fill:#f60b36;fill-opacity:1" />
    </g>
  </g>
</svg>
